<svg width="14" height="12" viewBox="0 0 14 12" fill="none" xmlns="http://www.w3.org/2000/svg">
<path d="M1.4001 0.400391C0.95827 0.400391 0.600098 0.758563 0.600098 1.20039C0.600098 1.64222 0.95827 2.00039 1.4001 2.00039H10.2001C10.6419 2.00039 11.0001 1.64222 11.0001 1.20039C11.0001 0.758563 10.6419 0.400391 10.2001 0.400391H1.4001Z" fill="#9CA3AF"/>
<path d="M1.4001 3.60039C0.95827 3.60039 0.600098 3.95856 0.600098 4.40039C0.600098 4.84222 0.95827 5.20039 1.4001 5.20039H5.4001C5.84193 5.20039 6.2001 4.84222 6.2001 4.40039C6.2001 3.95856 5.84193 3.60039 5.4001 3.60039H1.4001Z" fill="#9CA3AF"/>
<path d="M1.4001 6.80039C0.95827 6.80039 0.600098 7.15856 0.600098 7.60039C0.600098 8.04222 0.95827 8.40039 1.4001 8.40039H4.6001C5.04193 8.40039 5.4001 8.04222 5.4001 7.60039C5.4001 7.15856 5.04193 6.80039 4.6001 6.80039H1.4001Z" fill="#9CA3AF"/>
<path d="M9.4001 10.8004C9.4001 11.2422 9.75827 11.6004 10.2001 11.6004C10.6419 11.6004 11.0001 11.2422 11.0001 10.8004L11.0001 6.33176L12.0344 7.36608C12.3468 7.6785 12.8534 7.6785 13.1658 7.36608C13.4782 7.05366 13.4782 6.54713 13.1658 6.23471L10.7658 3.83471C10.6158 3.68468 10.4123 3.60039 10.2001 3.60039C9.98793 3.60039 9.78444 3.68468 9.63441 3.83471L7.23441 6.23471C6.92199 6.54712 6.92199 7.05366 7.23441 7.36608C7.54683 7.6785 8.05336 7.6785 8.36578 7.36608L9.4001 6.33176L9.4001 10.8004Z" fill="#9CA3AF"/>
</svg>
